<?xml version="1.0" encoding="utf-8"?>
<!-- Generator: Adobe Illustrator 27.7.0, SVG Export Plug-In . SVG Version: 6.00 Build 0)  -->
<svg version="1.1" id="Capa_1" xmlns="http://www.w3.org/2000/svg" xmlns:xlink="http://www.w3.org/1999/xlink" x="0px" y="0px"
	 viewBox="0 0 566 556" style="enable-background:new 0 0 566 556;" xml:space="preserve">
<style type="text/css">
	.st0{fill:#261300;}
	.st1{fill:#FF7C00;}
</style>
<g id="g3256">
	<path id="path3250" class="st0" d="M32.3,31.1h501.4v487.7H32.3V31.1z"/>
	<path id="path3252" class="st1" d="M9.5,8.3v533.3h547V8.3H9.5z M32.3,31.1h501.4v487.7H32.3V31.1z"/>
	<path id="path3254" class="st1" d="M199.4,310.3l-18,68.4c-0.5,1.8-1.1,2.3-3.4,2.3h-33.5c-2.3,0-2.7-0.7-2.3-3.4L206.9,151
		c1.1-4.1,1.8-7.7,2.3-18.9c0-1.6,0.7-2.3,1.8-2.3h47.9c1.6,0,2.3,0.5,2.7,2.3L334.1,378c0.5,1.8,0,3-1.8,3h-37.8
		c-1.8,0-3-0.5-3.4-2.1l-18.9-68.6H199.4z M262.7,273.4c-6.4-25.3-21.4-80.5-27.1-107.1h-0.5c-4.8,26.7-16.9,71.8-26.4,107.1H262.7z
		 M365.3,146.7c0-14.6,10.3-23.2,23.2-23.2c13.9,0,23.2,9.3,23.2,23.2c0,15-9.8,23.2-23.7,23.2C374.9,169.9,365.3,161.7,365.3,146.7
		z M368,198.4c0-1.8,0.7-2.7,2.7-2.7h35.8c1.8,0,2.7,0.7,2.7,2.7v179.8c0,1.8-0.5,2.7-2.7,2.7h-35.3c-2.3,0-3-1.1-3-3V198.4
		L368,198.4z"/>
</g>
</svg>
