<?xml version="1.0" encoding="utf-8"?>
<!-- Generator: Adobe Illustrator 27.7.0, SVG Export Plug-In . SVG Version: 6.00 Build 0)  -->
<svg version="1.1" id="layer" xmlns="http://www.w3.org/2000/svg" xmlns:xlink="http://www.w3.org/1999/xlink" x="0px" y="0px"
	 viewBox="0 0 150 227" style="enable-background:new 0 0 150 227;" xml:space="preserve">
<style type="text/css">
	.st0{fill:#1ABCFE;}
	.st1{fill:#0ACF83;}
	.st2{fill:#FF7262;}
	.st3{fill:#F24E1E;}
	.st4{fill:#A259FF;}
</style>
<path id="b" class="st0" d="M73.4,113.5c0-18.6,15.1-33.7,33.7-33.7s33.7,15.1,33.7,33.7s-15.1,33.7-33.7,33.7
	S73.4,132.1,73.4,113.5z"/>
<path id="c" class="st1" d="M6.1,180.8c0-18.6,15.1-33.7,33.7-33.7h33.7v33.7c0,18.6-15.1,33.7-33.7,33.7S6.1,199.4,6.1,180.8z"/>
<path id="d" class="st2" d="M73.4,12.5v67.3h33.7c18.6,0,33.7-15.1,33.7-33.7s-15.1-33.7-33.7-33.7L73.4,12.5L73.4,12.5z"/>
<path id="e" class="st3" d="M6.1,46.2c0,18.6,15.1,33.7,33.7,33.7h33.7V12.6H39.8C21.2,12.5,6.1,27.6,6.1,46.2z"/>
<path id="e_1_" class="st4" d="M6.1,113.5c0,18.6,15.1,33.7,33.7,33.7h33.7V79.9H39.8C21.2,79.8,6.1,94.9,6.1,113.5z"/>
</svg>
