<?xml version="1.0" encoding="utf-8"?>
<!-- Generator: Adobe Illustrator 27.7.0, SVG Export Plug-In . SVG Version: 6.00 Build 0)  -->
<svg version="1.1" id="Layer_2_00000149380589407224380120000016850203058740295309_"
	 xmlns="http://www.w3.org/2000/svg" xmlns:xlink="http://www.w3.org/1999/xlink" x="0px" y="0px" viewBox="0 0 435.7 174.8"
	 style="enable-background:new 0 0 435.7 174.8;" xml:space="preserve">
<style type="text/css">
	.st0{fill:#3F3D56;stroke:#231F20;stroke-width:1.12;stroke-miterlimit:10;}
	.st1{fill:#6C63FF;stroke:#231F20;stroke-miterlimit:10;}
	.st2{fill:#F1F1F1;stroke:#231F20;stroke-miterlimit:10;}
	.st3{fill:#2F2E41;stroke:#231F20;stroke-width:0.99;stroke-miterlimit:10;}
	.st4{fill:#F1F1F1;stroke:#231F20;stroke-width:1.03;stroke-miterlimit:10;}
	.st5{fill:#2F2E41;stroke:#231F20;stroke-miterlimit:10;}
</style>
<polyline class="st0" points="156.7,151.2 56.1,151.2 0.1,152.6 180.6,174.2 435.7,165.1 232.1,158.5 "/>
<path class="st1" d="M113.3,3L92.8,8.5c0,0-16.2,8.6-19.3,11.3S58.9,32.6,58.9,32.6l-10.7,9.2l-4,2.8c0,0-6.7,3.7-9.5,3.1
	c-4,3.1-13.1,16.5-13.1,16.5L20,80.3l-2.5,4.9V98l2.1,7.9c0,0,0.3,9.8,3.4,13.2c0,6.1,0.9,17.1,4.3,25.4c5.2,7.3,8.9,8.2,8.9,8.2
	l26.9,1.2l8.2-9.8l2.4-5.8l90.2,10.4c0,0,2.4,12.5,11.9,19.9h43.1l8.9-8.2v-6.1h108.5c0,0,5.2,6.7,8.2,8.6c6.1,0.3,33-0.3,33-0.3
	s11-6.4,11-11h9.5c0,0,5.5-41,1.5-51.4s-12.8-22-12.8-22l-13.8-10.4c0,0-55.6-16.5-56.6-16.5s-0.6-7.3-0.6-7.3s-5.8-3.7-8.9-3.7
	S296.1,40,296.1,40L261,14.9c0,0-16.8-9.2-35.8-10.7c-12.8-1.2-43.1-3.7-43.1-3.7H132L113.3,3L113.3,3z"/>
<polygon class="st2" points="146.3,9.4 161.9,46.7 300.7,48.2 250.6,12.4 "/>
<path class="st2" d="M98.3,11.8c0,0-30,13.4-35.5,23.2c0,4-1.5,13.2-1.5,13.2h26.3L98.3,11.8L98.3,11.8z"/>
<path class="st2" d="M92.5,48.2l9.5-36.4c0,0,16.2-4.9,30,0c3.4,3.4,15,17.4,9.8,23.9c-10.4,0-21.1,0.9-21.1,0.9s-8.6,3.1-7.9,6.7
	s1.8,8.9,11.3,9.5S92.5,48.2,92.5,48.2L92.5,48.2z"/>
<path class="st3" d="M32.2,68.6c-9.1,2.8,118.9-6.1,151.2-7.2c-11.6,8.9-20.9,22.8-20.9,22.8s2.8-9.3-2-9.3
	c-11,0-143.5,3.7-135.6,6.4C29.5,82.9,26.9,71.1,32.2,68.6L32.2,68.6z"/>
<path class="st4" d="M392.4,84.1l-12.1,2c-0.5,0.1-1,0.3-1.4,0.5c-1.2,0.8-3.1,2.8-2.8,7.7c0.1,1.8,1.7,3.3,3.5,3.3h15.5
	c1.9,0,3.5-1.6,3.5-3.5l0,0"/>
<path class="st2" d="M214.1,79.8c0,0,34-4.1,59.1,2.7c0,0,13.5,9.8,8,13.2s-44.3,1.5-44.3,1.5S220.7,98.6,214.1,79.8L214.1,79.8z"/>
<path class="st5" d="M294.3,82.2h71.9c0,0,7.6,12.5-2.5,19.3h-56.6C307.1,101.4,293.4,102,294.3,82.2z"/>
<path class="st2" d="M248.3,124.6l140.5-1.8c0,0,11.3,7,0,13.6l-152.6,1.4C236.2,137.8,234.4,128.3,248.3,124.6z"/>
<path class="st5" d="M182.4,90.1c0,0-17.7-1.8-19.9,32.7c0,0-0.3,37.9,14.7,39.8c15,1.8,19.6-19.6,19.6-19.6s1.8-22.9,0-30.6
	S190.3,92.2,182.4,90.1L182.4,90.1z"/>
<path class="st5" d="M180,93.2c0,0-12.9,8.3-12,33.2c0,0-2.2,21.8,12,31.9c0,0-18.1-8.6-15.7-35.5C164.3,122.8,166.1,91.9,180,93.2z
	"/>
<path class="st2" d="M185.6,97.1c0,0-11.5-2.4-12.1,31.8c0,0-0.9,20.2,12.1,27.2c0,0,11.5-11.5,9.3-33.3
	C194.9,122.8,194.1,98.5,185.6,97.1L185.6,97.1z"/>
<path class="st5" d="M38.7,88.5c0,0-13.1-0.5-13.1,28.5c0,0-1.8,29.7,10.4,30.6c0,0,12.2,1.4,12.8-29.6
	C48.8,118,47.5,90.8,38.7,88.5L38.7,88.5z"/>
<path class="st2" d="M39.9,93.1c0,0-11,2.4-10.1,24.9c0,0,1,27.6,7.3,26.2s9.2-19.4,9.5-26.2S47.6,98.3,39.9,93.1z"/>
</svg>
